<?xml version="1.0" encoding="UTF-8"?>
<svg xmlns="http://www.w3.org/2000/svg" width="300px" height="40px" viewBox="0 0 243 32" fill="none">
  <g clip-path="url(#clip0_2679_2009)">
    <path d="M243 0L226.808 20.9502L210.616 0H221.18C222.066 0 222.903 0.429251 223.416 1.14929L226.794 5.45565C225.901 6.66724 225.015 7.85115 224.101 9.04197C223.658 9.61662 223.27 10.2466 223.27 10.9113C223.27 11.6659 223.665 12.566 224.309 13.0576C224.946 13.556 225.832 13.8607 226.808 13.8607C227.784 13.8607 228.67 13.556 229.307 13.0576C229.944 12.566 230.345 11.6659 230.345 10.9113C230.345 10.2466 229.951 9.61662 229.515 9.04197C228.601 7.85115 227.715 6.66724 226.822 5.45565L230.2 1.14929C230.719 0.429251 231.55 0 232.436 0L243 0Z" fill="#B01421"></path>
    <path d="M15.4583 11.0428H19.8473L12.087 31.64H7.76033L0 11.0428H4.53436L9.96866 26.7174H10.031L15.4653 11.0428H15.4583ZM33.4573 20.1817H33.395L28.563 11.0498H23.6963L31.2213 24.1835V31.6469H35.4303V24.1835L42.9483 11.0498H38.2617L33.4573 20.1817ZM67.15 21.1025C67.15 27.9083 62.8787 31.64 54.8553 31.64H47.988V11.0428H54.8553C62.7333 11.0428 67.15 14.1168 67.15 21.1025ZM62.851 21.1372C62.851 16.72 60.165 14.6915 54.8207 14.6915H52.2247V27.9429H54.8207C60.165 27.9429 62.851 25.7066 62.851 21.1372ZM85.2667 23.7611L90.2233 31.64H85.239L81.1477 24.5643C80.85 24.5919 80.5523 24.5919 80.2547 24.5919H77.4787V31.64H73.242V11.0428H80.2547C86.2843 11.0428 89.358 13.286 89.358 17.6685C89.358 20.5902 87.925 22.6811 85.2667 23.7611ZM85.0867 17.9386C85.0867 15.7923 83.626 14.6569 80.31 14.6569H77.4717V21.3103H80.2477C83.5637 21.3103 85.0798 19.9948 85.0798 17.9386H85.0867ZM106.547 11.0428L114.425 31.64H109.946L107.98 26.1151H100.545L98.6344 31.64H94.2731L102.186 11.0428H106.54H106.547ZM107.025 23.1934L104.311 15.3423H104.249L101.535 23.1934H107.025ZM132.604 22.4803C132.604 26.4543 130.991 28.2129 127.8 28.2129C124.608 28.2129 122.933 26.4543 122.933 22.4803V11.0428H118.724V22.3834C118.724 28.8914 121.41 31.9931 127.647 31.9931C133.885 31.9931 136.688 28.5868 136.688 22.3834V11.0428H132.597V22.4734L132.604 22.4803ZM147.91 11.0428H143.673V31.64H157.823V27.936H147.91V11.0428ZM163.576 31.64H167.785V11.0428H163.576V31.64ZM185.216 14.3868C187.965 14.3868 189.245 15.4323 190.111 16.0554L191.751 12.8291C190.706 12.0813 189.003 10.6828 184.946 10.6828C179.457 10.6828 174.23 14.0268 174.23 21.4003C174.23 28.7737 178.674 32 184.406 32C188.678 32 190.796 30.5045 191.627 29.8191L190.166 26.6274C189.446 27.1675 187.868 28.2129 184.884 28.2129C181.18 28.2129 178.529 26.0666 178.529 21.2272C178.529 16.3877 181.575 14.3938 185.216 14.3938V14.3868ZM205.631 19.434C201.99 18.2709 200.792 17.7932 200.792 16.2077C200.792 14.9269 202.045 14.2691 204.254 14.2691C206.822 14.2691 208.525 15.4046 209.3 15.91L210.851 12.656C209.868 11.9983 208.013 10.6828 204.136 10.6828C199.567 10.6828 196.556 12.8914 196.556 16.4708C196.556 20.0502 199.034 21.4833 202.558 22.6811C206.081 23.8442 207.217 24.5919 207.217 26.1151C207.217 27.6382 205.846 28.3237 203.458 28.3237C200.474 28.3237 198.563 26.8628 197.76 26.2328L196.12 29.6391C197.345 30.5322 199.463 32 203.672 32C208.719 32 211.523 29.4037 211.523 25.762C211.523 22.328 209.252 20.5971 205.645 19.434H205.631Z" fill="white"></path>
  </g>
  <defs>
    <clipPath id="clip0_2679_2009">
      <rect width="243" height="32" fill="white"></rect>
    </clipPath>
  </defs>
</svg>
