
<svg xmlns="http://www.w3.org/2000/svg" width="178.168" height="210.141" viewBox="0 0 178.168 210.141">
  <path id="Path_725" data-name="Path 725" d="M1054.945,173.308h-40.918c-18.484,0-22.771-5.669-22.771-11.331a12.678,12.678,0,0,1,4.339-9.625,14.186,14.186,0,0,1,2.467-1.537,59.7,59.7,0,0,0,5.613,2.594,57.414,57.414,0,0,0,21.315,3.981,58.366,58.366,0,0,0,21.078-3.864,58.98,58.98,0,0,0,18.034-10.891,52.179,52.179,0,0,0,12.647-16.862,50.029,50.029,0,0,0,4.684-21.784q0-14.626-6.709-25.563a48.644,48.644,0,0,0,3.533-25.553v0a.992.992,0,0,0-.013-.144c0-.037,0-.073-.011-.112a.838.838,0,0,0-.738-.679.821.821,0,0,0-.688.259,50.014,50.014,0,0,1-20.142,8.39c-1.441-.894-2.969-1.673-4.5-2.449-.545-.3-1.054-.633-1.608-.929l0,.1c-.415-.194-.79-.441-1.211-.625a13.156,13.156,0,0,0-1.639-.7,62.879,62.879,0,0,0-43.681-.586,58.728,58.728,0,0,0-9.518,4.366c-.4.23-.775.5-1.171.741a50.017,50.017,0,0,1-19.763-8.3.974.974,0,0,0-.094-.066.8.8,0,0,0-.592-.193.837.837,0,0,0-.737.679c-.007.038-.006.075-.011.112a.829.829,0,0,0-.013.144v0a49.568,49.568,0,0,0,3.525,25.536c-.678,1.163-1.353,2.33-1.955,3.565-.562,1.153-1.015,2.365-1.476,3.573a45.755,45.755,0,0,0-1.588,5.05c-.089.352-.207.689-.29,1.046-.232,1.022-.39,2.087-.561,3.143-.133.823-.293,1.631-.388,2.476a57.906,57.906,0,0,0-.382,6.494,50.834,50.834,0,0,0,4.1,20.611A52.049,52.049,0,0,0,984,140.527c.377.393,1.162,1.244,1.642,1.639a58.385,58.385,0,0,0,6.175,4.848c-45.628,19.684-23.356,58.562,19.476,58.024,1.167-.078,2.549.058,3.8.058h40.719c9.91,0,16.874,7.87,16.874,18.255a23.807,23.807,0,0,1-1.854,9.761.5.5,0,0,0,.113.022,25.268,25.268,0,0,1-3.908,5.819c-.673.749-17.52,18.925-48.931,3.222a87.517,87.517,0,0,0-29.68-8.337s-3.577-.3-3.573-.312a102.055,102.055,0,0,0-21.924.87,93.043,93.043,0,0,0-9.5,1.836c6.942-5.326,25.779-6.921,33.2-6.542a32.812,32.812,0,0,1,6.184-10.352,60.667,60.667,0,0,0-67.711,30.49,60.693,60.693,0,0,1,57.034,10.512,47.034,47.034,0,0,1,.455-19.172,53.955,53.955,0,0,1,7.546.7l.011-.042c9.377,1.5,17.187,5.174,24.95,9.01,14.7,7.247,20.3,11.068,39.776,11.068,58.994,0,69.81-88.6.077-88.6m-48.576-94.144a56.4,56.4,0,0,1,4.218-15.224q2.688-5.619,6.323-7.727a15.766,15.766,0,0,1,8.081-2.11,16.412,16.412,0,0,1,8.2,2.11q3.745,2.106,6.559,7.727t4.333,15.344a166.692,166.692,0,0,1,1.522,24.942,167.205,167.205,0,0,1-1.522,24.827q-1.527,9.837-4.333,15.574t-6.559,8.079a15.154,15.154,0,0,1-8.2,2.344,14.57,14.57,0,0,1-8.081-2.344q-3.633-2.335-6.323-8.079t-4.218-15.693a169.3,169.3,0,0,1-1.521-24.943,164.057,164.057,0,0,1,1.521-24.825" transform="translate(-925.097 -51.763)" fill="currentcolor"/>
</svg>
