<svg xmlns="http://www.w3.org/2000/svg" width="17" height="19" viewBox="0 0 17 19" fill="none">
  <path d="M8.91707 0.825958C8.81476 0.71961 8.69214 0.635833 8.5568 0.579817C8.42147 0.523802 8.2763 0.496741 8.1303 0.500313C7.9843 0.503884 7.84057 0.538012 7.70802 0.60058C7.57547 0.663148 7.45693 0.752825 7.35973 0.864053L0.770934 8.39495C0.596429 8.59442 0.499986 8.85246 0.5 9.11985V17.4116C0.5 17.7002 0.612381 17.9771 0.81242 18.1812C1.01246 18.3853 1.28377 18.5 1.56667 18.5H4.76667C5.04956 18.5 5.32088 18.3853 5.52091 18.1812C5.72095 17.9771 5.83333 17.7002 5.83333 17.4116V13.602C5.83333 13.3134 5.94571 13.0365 6.14575 12.8324C6.34579 12.6283 6.6171 12.5136 6.9 12.5136H10.1C10.3829 12.5136 10.6542 12.6283 10.8542 12.8324C11.0543 13.0365 11.1667 13.3134 11.1667 13.602V17.4116C11.1667 17.7002 11.279 17.9771 11.4791 18.1812C11.6791 18.3853 11.9504 18.5 12.2333 18.5H15.4333C15.7162 18.5 15.9875 18.3853 16.1876 18.1812C16.3876 17.9771 16.5 17.7002 16.5 17.4116V9.14924C16.4997 8.86416 16.3898 8.59059 16.1939 8.38733L8.91707 0.825958Z" stroke="currentColor"/>
</svg>