<svg xmlns="http://www.w3.org/2000/svg" width="11.061" height="11.061" viewBox="0 0 11.061 11.061"><g transform="translate(-1113.313 -417.098)"><path d="M297.086,120.19a2.842,2.842,0,1,1,2.842-2.842A2.845,2.845,0,0,1,297.086,120.19Zm0-4.737a1.9,1.9,0,1,0,1.9,1.9A1.9,1.9,0,0,0,297.086,115.453Z" transform="translate(821.758 305.28)" fill="currentColor"/><path d="M290.99,114.14H285.7a2.891,2.891,0,0,1-2.887-2.888v-5.286a2.891,2.891,0,0,1,2.887-2.887h5.286a2.891,2.891,0,0,1,2.887,2.887v5.286A2.891,2.891,0,0,1,290.99,114.14ZM285.7,104.025a1.944,1.944,0,0,0-1.941,1.941v5.286a1.944,1.944,0,0,0,1.941,1.941h5.286a1.944,1.944,0,0,0,1.941-1.941v-5.286a1.944,1.944,0,0,0-1.941-1.941Z" transform="translate(830.496 314.019)" fill="currentColor"/><circle cx="0.653" cy="0.653" r="0.653" transform="translate(1121.109 419.006)" fill="currentColor"/></g></svg>