<svg xmlns="http://www.w3.org/2000/svg" width="12" height="12" viewBox="0 0 12 12" fill="none">
  <path d="M0.949367 11.0506C1.2506 11.3523 1.60847 11.5914 2.00242 11.7544C2.39637 11.9173 2.81863 12.0008 3.24494 12C3.67134 12.0007 4.09369 11.9173 4.48774 11.7543C4.88179 11.5914 5.23978 11.3523 5.54115 11.0506L7.37761 9.21362L6.45938 8.29544L4.62293 10.1325C4.25698 10.4968 3.76163 10.7013 3.24526 10.7013C2.72889 10.7013 2.23354 10.4968 1.86759 10.1325C1.50297 9.7667 1.29822 9.27131 1.29822 8.75486C1.29822 8.23841 1.50297 7.74302 1.86759 7.37726L3.7047 5.54089L2.78647 4.62271L0.949367 6.45907C0.341419 7.06846 0 7.89409 0 8.75486C0 9.61563 0.341419 10.4413 0.949367 11.0506ZM11.0512 5.54089C11.6588 4.93133 12 4.10577 12 3.24511C12 2.38444 11.6588 1.55888 11.0512 0.949322C10.4417 0.341402 9.61608 0 8.75527 0C7.89447 0 7.0688 0.341402 6.45938 0.949322L4.62293 2.78634L5.54115 3.70452L7.37761 1.86751C7.74356 1.50321 8.2389 1.29869 8.75527 1.29869C9.27165 1.29869 9.76699 1.50321 10.1329 1.86751C10.4976 2.23327 10.7023 2.72866 10.7023 3.24511C10.7023 3.76156 10.4976 4.25694 10.1329 4.62271L8.29584 6.45907L9.21406 7.37726L11.0512 5.54089ZM3.70404 9.21433L2.78516 8.29615L8.29648 2.78575L9.21471 3.70458L3.70404 9.21433Z" fill="currentColor"/>
  <path d="M0.949367 11.0506C1.2506 11.3523 1.60847 11.5914 2.00242 11.7544C2.39637 11.9173 2.81863 12.0008 3.24494 12C3.67134 12.0007 4.09369 11.9173 4.48774 11.7543C4.88179 11.5914 5.23978 11.3523 5.54115 11.0506L7.37761 9.21362L6.45938 8.29544L4.62293 10.1325C4.25698 10.4968 3.76163 10.7013 3.24526 10.7013C2.72889 10.7013 2.23354 10.4968 1.86759 10.1325C1.50297 9.7667 1.29822 9.27131 1.29822 8.75486C1.29822 8.23841 1.50297 7.74302 1.86759 7.37726L3.7047 5.54089L2.78647 4.62271L0.949367 6.45907C0.341419 7.06846 0 7.89409 0 8.75486C0 9.61563 0.341419 10.4413 0.949367 11.0506ZM11.0512 5.54089C11.6588 4.93133 12 4.10577 12 3.24511C12 2.38444 11.6588 1.55888 11.0512 0.949322C10.4417 0.341402 9.61608 0 8.75527 0C7.89447 0 7.0688 0.341402 6.45938 0.949322L4.62293 2.78634L5.54115 3.70452L7.37761 1.86751C7.74356 1.50321 8.2389 1.29869 8.75527 1.29869C9.27165 1.29869 9.76699 1.50321 10.1329 1.86751C10.4976 2.23327 10.7023 2.72866 10.7023 3.24511C10.7023 3.76156 10.4976 4.25694 10.1329 4.62271L8.29584 6.45907L9.21406 7.37726L11.0512 5.54089ZM3.70404 9.21433L2.78516 8.29615L8.29648 2.78575L9.21471 3.70458L3.70404 9.21433Z" fill="currentColor"/>
</svg>