<svg xmlns="http://www.w3.org/2000/svg" width="10.131" height="10.151" viewBox="0 0 10.131 10.151"><path d="M467.734,120.689h1.958v6.46h-1.958Z" transform="translate(-467.223 -116.999)" fill="currentColor"/><path d="M481.505,121.761c0-.68,0-1.5-.016-2.1h1.9a7.887,7.887,0,0,1,.076.946,2.329,2.329,0,0,1,2.333-1.137c1.566,0,2.077,1.132,2.077,3.165v3.582h-1.958V122.86c0-.985-.4-1.681-1.031-1.681-1.1,0-1.421.7-1.421,2.166v2.872h-1.958Z" transform="translate(-477.742 -116.067)" fill="currentColor"/><circle cx="1.141" cy="1.141" r="1.141" transform="translate(0 0.873) rotate(-22.5)" fill="currentColor"/></svg>