<svg xmlns="http://www.w3.org/2000/svg" width="673" height="434" viewBox="0 0 673 434" fill="none">
  <path opacity="0.96" d="M671.021 0.5L336.021 432.5L1.02051 0.5H219.58C237.912 0.5 255.243 9.35129 265.841 24.1986L335.734 112.997C317.258 137.981 298.926 162.393 280.02 186.948C270.854 198.797 262.833 211.789 262.833 225.494C262.833 241.055 270.997 259.614 284.317 269.751C297.493 280.029 315.826 286.311 336.021 286.311C356.215 286.311 374.548 280.029 387.724 269.751C400.901 259.614 409.208 241.055 409.208 225.494C409.208 211.789 401.044 198.797 392.021 186.948C373.116 162.393 354.783 137.981 336.307 112.997L406.2 24.1986C416.942 9.35129 434.129 0.5 452.462 0.5L671.021 0.5Z" stroke="currentColor"/>
</svg>