<svg xmlns="http://www.w3.org/2000/svg" width="33" height="21" viewBox="0 0 33 21" fill="none">
  <path d="M32.3843 0L16.1922 20.9502L0 0H10.564C11.4501 0 12.2878 0.429251 12.8001 1.14929L16.1783 5.45565C15.2853 6.66724 14.3992 7.85115 13.4854 9.04197C13.0423 9.61662 12.6547 10.2466 12.6547 10.9113C12.6547 11.6659 13.0493 12.566 13.6931 13.0576C14.33 13.556 15.2161 13.8607 16.1922 13.8607C17.1683 13.8607 18.0544 13.556 18.6912 13.0576C19.3281 12.566 19.7296 11.6659 19.7296 10.9113C19.7296 10.2466 19.3351 9.61662 18.8989 9.04197C17.9851 7.85115 17.099 6.66724 16.206 5.45565L19.5843 1.14929C20.1035 0.429251 20.9342 0 21.8203 0L32.3843 0Z" fill="#B01421"/>
</svg>